<?xml version="1.0" encoding="iso-8859-1"?>
<!-- Generator: Adobe Illustrator 16.0.0, SVG Export Plug-In . SVG Version: 6.00 Build 0)  -->
<!DOCTYPE svg PUBLIC "-//W3C//DTD SVG 1.1//EN" "http://www.w3.org/Graphics/SVG/1.1/DTD/svg11.dtd">
<svg version="1.1" id="Capa_1" xmlns="http://www.w3.org/2000/svg" xmlns:xlink="http://www.w3.org/1999/xlink" x="0px" y="0px"
	 width="209.217px" height="209.216px" viewBox="0 0 209.217 209.216" style="enable-background:new 0 0 209.217 209.216;"
	 xml:space="preserve">
<g>
	<polygon points="104.605,124.953 54.991,124.953 54.991,84.259 104.605,84.259 154.217,84.259 154.217,124.953 	"/>
	<rect y="84.259" width="44.24" height="40.694"/>
	<rect x="164.968" y="84.259" width="44.243" height="40.694"/>
	<polygon points="209.217,73.509 159.593,73.509 109.98,73.509 109.98,22.174 209.217,22.174 	"/>
	<polygon points="0,22.174 99.229,22.174 99.229,73.509 49.615,73.509 0,73.509 	"/>
	<polygon points="0,135.704 49.615,135.704 99.229,135.704 99.229,187.042 0,187.042 	"/>
	<polygon points="209.217,187.042 109.98,187.042 109.98,135.704 159.593,135.704 209.217,135.704 	"/>
</g>
<g>
</g>
<g>
</g>
<g>
</g>
<g>
</g>
<g>
</g>
<g>
</g>
<g>
</g>
<g>
</g>
<g>
</g>
<g>
</g>
<g>
</g>
<g>
</g>
<g>
</g>
<g>
</g>
<g>
</g>
</svg>
