<?xml version="1.0" encoding="utf-8"?>
<!-- Generated by IcoMoon.io -->
<!DOCTYPE svg PUBLIC "-//W3C//DTD SVG 1.1//EN" "http://www.w3.org/Graphics/SVG/1.1/DTD/svg11.dtd">
<svg version="1.1" xmlns="http://www.w3.org/2000/svg" xmlns:xlink="http://www.w3.org/1999/xlink" width="512" height="512" viewBox="0 0 512 512">
<g>
</g>
	<path d="M15.483 73.523h481.034l-20.337 26.757v338.197h-12.298v-337.122h-414.167v337.122h-12.82v-337.122h-0.532l-20.88-27.832zM259.481 117.657v199.342h186.471v-199.342h-186.471zM273.899 204.083c-4.281 0-8.007 3.758-8.007 8.059 0 4.803 3.728 8.581 8.007 8.581 4.844 0 8.581-3.779 8.581-8.581 0-4.301-3.738-8.059-8.581-8.059v0zM259.481 326.615v61.563h186.471v-61.563h-186.471zM369.705 329.318h-22.999c0.543 5.878 5.335 10.701 11.223 10.701 6.41 0 11.254-4.823 11.776-10.701v0zM65.475 326.615v61.563h186.501v-61.563h-186.501zM165.294 329.318h-23.019c0.532 5.878 5.335 10.701 11.274 10.701 6.4 0 11.223-4.823 11.745-10.701v0zM65.475 117.657v199.342h186.501v-199.342h-186.501zM236.994 204.083c-4.27 0-8.018 3.758-8.018 8.059 0 4.803 3.748 8.581 8.018 8.581 4.833 0 8.56-3.779 8.56-8.581 0-4.301-3.727-8.059-8.56-8.059z" fill="#ffffff" />
</svg>
