<?xml version="1.0" encoding="iso-8859-1"?>
<!-- Generator: Adobe Illustrator 16.0.0, SVG Export Plug-In . SVG Version: 6.00 Build 0)  -->
<!DOCTYPE svg PUBLIC "-//W3C//DTD SVG 1.1//EN" "http://www.w3.org/Graphics/SVG/1.1/DTD/svg11.dtd">
<svg version="1.1" id="Capa_1" xmlns="http://www.w3.org/2000/svg" xmlns:xlink="http://www.w3.org/1999/xlink" x="0px" y="0px"
	 width="432.232px" height="432.232px" viewBox="0 0 432.232 432.232" style="enable-background:new 0 0 432.232 432.232;"
	 xml:space="preserve">
<g>
	<g>
		<path d="M325.14,0H107.093c-8.284,0-15,6.716-15,15v96.8H340.14V15C340.14,6.716,333.423,0,325.14,0z M138.648,78.066
			c0,4.971-4.029,9-9,9c-4.971,0-9-4.029-9-9V33.733c0-4.971,4.029-9,9-9c4.971,0,9,4.029,9,9V78.066z"/>
		<path d="M92.093,397.5c0,8.284,6.716,15,15,15h19.023v5.398c0,7.916,6.418,14.334,14.334,14.334s14.333-6.418,14.333-14.334V412.5
			h122.666v5.398c0,7.916,6.418,14.334,14.334,14.334s14.334-6.418,14.334-14.334V412.5h19.023c8.283,0,15-6.716,15-15V141.8H92.093
			V397.5z M120.648,185.733c0-4.971,4.029-9,9-9c4.971,0,9,4.029,9,9v44.333c0,4.971-4.029,9-9,9c-4.971,0-9-4.029-9-9V185.733z"/>
	</g>
</g>
<g>
</g>
<g>
</g>
<g>
</g>
<g>
</g>
<g>
</g>
<g>
</g>
<g>
</g>
<g>
</g>
<g>
</g>
<g>
</g>
<g>
</g>
<g>
</g>
<g>
</g>
<g>
</g>
<g>
</g>
</svg>
