<?xml version="1.0" encoding="iso-8859-1"?>
<!-- Generator: Adobe Illustrator 16.0.0, SVG Export Plug-In . SVG Version: 6.00 Build 0)  -->
<!DOCTYPE svg PUBLIC "-//W3C//DTD SVG 1.1//EN" "http://www.w3.org/Graphics/SVG/1.1/DTD/svg11.dtd">
<svg version="1.1" id="Capa_1" xmlns="http://www.w3.org/2000/svg" xmlns:xlink="http://www.w3.org/1999/xlink" x="0px" y="0px"
	 width="27.083px" height="27.083px" viewBox="0 0 27.083 27.083" style="enable-background:new 0 0 27.083 27.083;"
	 xml:space="preserve">
<g>
	<g>
		<path style="fill:#333333;" d="M21.875,0H5.208C3.482,0,2.083,1.4,2.083,3.125v20.833c0,1.726,1.399,3.125,3.125,3.125h16.667
			c1.727,0,3.125-1.399,3.125-3.125V3.125C25,1.4,23.602,0,21.875,0z M16.146,1.957c0.932,0,1.688,0.756,1.688,1.689
			c0,0.932-0.757,1.688-1.688,1.688c-0.935,0-1.688-0.756-1.688-1.688C14.458,2.713,15.214,1.957,16.146,1.957z M13.542,21.936
			c-4.06,0-7.353-3.291-7.353-7.353c0-4.061,3.293-7.353,7.353-7.353c4.059,0,7.353,3.292,7.353,7.353
			C20.895,18.645,17.601,21.936,13.542,21.936z M21.354,5.334c-0.934,0-1.688-0.756-1.688-1.688c0-0.933,0.757-1.689,1.688-1.689
			s1.688,0.756,1.688,1.689C23.043,4.578,22.286,5.334,21.354,5.334z"/>
		<path style="fill:#333333;" d="M13.542,8.529c-3.344,0-6.055,2.711-6.055,6.055c0,3.344,2.711,6.054,6.055,6.054
			c3.343,0,6.055-2.712,6.055-6.055C19.597,11.241,16.885,8.529,13.542,8.529z M13.542,9.571c2.608,0,4.735,2.012,4.969,4.561
			c-1.858-0.987-2.755,0.414-4.969,0.414c-2.232,0-2.878-1.524-4.968-0.41C8.805,11.585,10.932,9.571,13.542,9.571z"/>
	</g>
</g>
<g>
</g>
<g>
</g>
<g>
</g>
<g>
</g>
<g>
</g>
<g>
</g>
<g>
</g>
<g>
</g>
<g>
</g>
<g>
</g>
<g>
</g>
<g>
</g>
<g>
</g>
<g>
</g>
<g>
</g>
</svg>
