<?xml version="1.0" encoding="UTF-8"?>
<!-- Generator: Adobe Illustrator 15.0.2, SVG Export Plug-In . SVG Version: 6.00 Build 0)  -->
<!DOCTYPE svg PUBLIC "-//W3C//DTD SVG 1.1//EN" "http://www.w3.org/Graphics/SVG/1.1/DTD/svg11.dtd">
<svg xmlns="http://www.w3.org/2000/svg" xmlns:xlink="http://www.w3.org/1999/xlink" version="1.1" id="Layer_1" x="0px" y="0px" width="512px" height="640px" viewBox="0 0 512 640" enable-background="new 0 0 512 640" xml:space="preserve">
<path d="M165.438,474.562c49.922,49.922,131.031,49.922,180.969,0c49.906-49.922,49.906-131.047,0-180.961L165.438,474.562z   M448,0.32L64,0C28.641,0,0,28.641,0,64v512c0,35.359,28.641,64,64,64h384c35.359,0,64-28.641,64-64V64  C512,28.641,483.359,0.32,448,0.32z M192,64c17.602,0,32,14.398,32,32s-14.398,32-32,32s-32-14.398-32-32S174.398,64,192,64z M96,64  c17.602,0,32,14.398,32,32s-14.398,32-32,32s-32-14.398-32-32S78.398,64,96,64z M256,576c-106.078,0-192-85.922-192-192  s85.922-192,192-192s192,85.922,192,192S362.078,576,256,576z" fill="#ffffff"/>
</svg>
